<svg width="20" height="19" viewBox="0 0 20 19" fill="none" xmlns="http://www.w3.org/2000/svg">
<path d="M16.551 8.64203C16.551 10.1229 16.1119 11.5704 15.2892 12.8017C14.4664 14.0329 13.2971 14.9926 11.9289 15.5592C10.5608 16.1259 9.05538 16.2741 7.60302 15.9851C6.15066 15.6961 4.8166 14.983 3.76957 13.9358C2.72253 12.8886 2.00954 11.5545 1.72077 10.1021C1.43199 8.64966 1.5804 7.14424 2.14723 5.77619C2.71406 4.40813 3.67384 3.23889 4.9052 2.41633C6.13657 1.59377 7.5842 1.15483 9.06503 1.15503C11.0505 1.15529 12.9546 1.94422 14.3585 3.34827C15.7624 4.75233 16.551 6.65653 16.551 8.64203V8.64203Z" stroke="#929292" stroke-width="2" stroke-linecap="round" stroke-linejoin="round"/>
<path d="M18.423 18L14.352 13.929" stroke="#929292" stroke-width="2" stroke-linecap="round" stroke-linejoin="round"/>
</svg>
